<?xml version="1.0" standalone="no"?>
<!DOCTYPE svg PUBLIC "-//W3C//DTD SVG 20010904//EN"
 "http://www.w3.org/TR/2001/REC-SVG-20010904/DTD/svg10.dtd">
<svg version="1.0" xmlns="http://www.w3.org/2000/svg"
 width="350.000000pt" height="350.000000pt" viewBox="0 0 350.000000 350.000000"
 preserveAspectRatio="xMidYMid meet">
<metadata>
Created by potrace 1.14, written by Peter Selinger 2001-2017
</metadata>
<g transform="translate(0.000000,350.000000) scale(0.100000,-0.100000)"
fill="#000000" stroke="none">
<path d="M1820 3026 c0 -2 8 -10 18 -17 15 -13 16 -12 3 4 -13 16 -21 21 -21
13z"/>
<path d="M1922 3004 c10 -10 20 -16 22 -13 3 3 -5 11 -17 18 -21 13 -21 12 -5
-5z"/>
<path d="M1990 3001 c0 -6 4 -13 10 -16 6 -3 7 1 4 9 -7 18 -14 21 -14 7z"/>
<path d="M2015 2961 c-3 -5 -2 -12 3 -15 5 -3 9 1 9 9 0 17 -3 19 -12 6z"/>
<path d="M1876 2933 c-6 -14 -5 -15 5 -6 7 7 10 15 7 18 -3 3 -9 -2 -12 -12z"/>
<path d="M2035 2862 c3 -3 0 -10 -5 -17 -7 -8 -5 -12 5 -12 8 0 13 3 10 5 -3
3 0 10 5 17 7 8 5 12 -5 12 -8 0 -13 -3 -10 -5z"/>
<path d="M1873 2829 c-1 -10 3 -22 9 -25 7 -4 8 -2 4 5 -4 6 -3 18 3 25 8 9 7
13 -2 13 -7 0 -14 -8 -14 -18z"/>
<path d="M1799 2818 c-5 -19 -8 -50 -4 -46 7 7 15 48 9 48 -2 0 -4 -1 -5 -2z"/>
<path d="M1585 2800 c-3 -6 1 -7 9 -4 18 7 21 14 7 14 -6 0 -13 -4 -16 -10z"/>
<path d="M1687 2799 c7 -7 15 -10 18 -7 3 3 -2 9 -12 12 -14 6 -15 5 -6 -5z"/>
<path d="M1830 2800 c0 -5 5 -10 10 -10 6 0 10 5 10 10 0 6 -4 10 -10 10 -5 0
-10 -4 -10 -10z"/>
<path d="M1874 2775 c4 -10 -1 -15 -15 -15 -13 0 -18 4 -13 13 6 10 4 10 -7 0
-7 -7 -29 -13 -48 -13 -38 0 -69 -14 -54 -23 14 -9 9 -153 -6 -171 -12 -14
-12 -16 2 -11 18 8 18 -23 0 -43 -7 -7 -9 -20 -6 -30 6 -15 5 -15 -10 -4 -15
13 -15 16 0 40 l15 27 -20 -25 c-16 -19 -18 -28 -9 -39 10 -11 8 -13 -11 -7
-12 4 -22 3 -22 -2 0 -6 -8 -9 -17 -7 -10 2 -22 4 -26 4 -5 1 -5 7 -1 14 4 6
3 9 -1 4 -5 -4 -10 -18 -11 -30 -2 -12 0 -16 2 -9 8 19 24 14 18 -5 -5 -15 -3
-15 10 1 9 11 16 16 16 12 0 -5 6 -3 14 3 11 9 15 9 19 -1 4 -10 8 -10 16 2 6
8 11 11 11 6 0 -5 6 -3 14 3 12 10 14 9 11 -6 -2 -10 -4 -18 -5 -18 -1 0 -3
-8 -5 -17 -2 -10 1 -18 7 -18 6 0 7 -8 3 -17 -4 -10 -7 -22 -6 -28 4 -48 3
-106 -2 -111 -3 -4 -3 -14 2 -23 10 -18 6 -50 -6 -62 -5 -5 -9 8 -8 30 1 33
-2 39 -18 36 -14 -3 -17 0 -12 15 3 10 1 21 -5 25 -13 8 5 35 23 35 8 0 8 -3
0 -11 -12 -12 -6 -49 8 -49 11 0 7 23 -6 32 -6 5 -6 8 1 8 15 0 12 57 -4 87
-14 25 -16 45 -3 24 6 -9 11 -10 15 -2 4 6 2 12 -3 12 -6 1 -15 3 -21 4 -5 1
-15 3 -21 4 -5 0 -7 6 -4 11 4 6 11 8 16 5 5 -4 17 -2 26 4 31 17 -27 6 -67
-13 -33 -16 -33 -17 -6 -11 26 6 28 4 17 -9 -9 -11 -10 -16 -2 -16 6 0 11 -7
11 -15 0 -8 6 -15 13 -15 8 0 7 -4 -3 -10 -21 -13 -30 -12 -26 3 1 6 1 9 -1 5
-3 -5 -12 -8 -21 -8 -9 -1 -3 -7 14 -14 31 -14 54 -36 37 -36 -5 0 -19 7 -31
16 -12 8 -22 11 -22 5 0 -5 9 -12 19 -16 29 -9 33 -33 8 -47 -12 -7 -26 -11
-30 -10 -11 3 -20 -25 -13 -43 4 -12 10 -13 31 -3 14 6 25 15 25 20 0 4 5 8
10 8 22 0 3 -26 -30 -42 -19 -10 -27 -18 -18 -18 9 0 18 -3 21 -7 2 -5 2 -2 1
5 -2 6 0 12 5 12 16 0 20 -13 10 -32 -9 -18 -8 -18 10 -9 21 12 19 41 -3 41
-6 0 -4 5 4 10 20 13 33 13 25 0 -4 -6 -2 -17 5 -24 8 -11 4 -19 -19 -35 -16
-11 -39 -26 -52 -31 -22 -9 -21 -10 6 -4 l30 6 -29 -31 c-17 -17 -31 -41 -32
-54 -2 -12 0 -16 2 -9 8 18 28 15 55 -8 28 -23 13 -27 -19 -4 -12 8 -22 10
-22 5 0 -6 4 -11 9 -11 15 0 42 -31 36 -41 -9 -13 -25 -11 -21 4 1 6 1 9 -1 5
-3 -5 -12 -8 -21 -9 -14 0 -13 -2 3 -9 19 -8 18 -11 -7 -14 -6 0 -13 -8 -15
-16 -4 -13 -3 -13 6 0 6 8 11 11 11 7 0 -5 14 1 30 13 17 12 30 16 30 11 0 -6
-15 -21 -32 -32 -28 -17 -29 -19 -8 -13 25 7 25 6 6 -14 -10 -12 -16 -27 -13
-34 4 -11 6 -11 6 0 1 7 8 20 16 29 8 8 13 19 10 24 -4 5 -2 9 2 9 5 0 14 -10
22 -21 12 -20 11 -21 -4 -15 -16 6 -16 4 -4 -11 12 -15 12 -16 -3 -10 -22 8
-33 -10 -18 -28 9 -11 9 -15 1 -15 -6 0 -11 -4 -11 -10 0 -5 3 -9 8 -9 18 3
35 -2 28 -8 -15 -16 -46 -13 -47 5 0 11 -2 12 -6 4 -3 -7 3 -22 13 -33 16 -17
16 -22 4 -31 -12 -8 -12 -9 3 -4 22 7 35 -21 17 -37 -10 -9 -12 -9 -8 3 4 12
-2 16 -21 17 -23 2 -24 1 -6 -7 11 -5 16 -9 10 -10 -5 0 1 -7 14 -14 14 -8 19
-16 13 -20 -6 -3 -13 -2 -17 4 -3 5 -11 10 -18 10 -6 0 -2 -6 8 -14 16 -11 17
-17 7 -29 -10 -12 -10 -16 3 -21 8 -3 21 -3 29 0 9 4 14 0 12 -10 -3 -19 -16
-34 -16 -17 0 7 -3 10 -8 7 -4 -2 -15 2 -26 9 -12 10 -16 20 -11 37 5 18 4 20
-4 8 -17 -24 -13 -38 19 -57 27 -16 41 -35 23 -32 -29 5 -34 -2 -19 -23 23
-32 19 -48 -4 -18 -23 29 -25 46 -7 53 9 4 9 6 -1 6 -21 2 -25 -26 -7 -52 9
-14 12 -28 7 -31 -5 -3 -14 6 -20 19 -7 16 -17 23 -27 19 -8 -3 -15 -8 -15
-11 0 -3 7 -2 16 1 12 5 15 2 10 -9 -3 -9 -2 -14 3 -11 5 3 11 -1 15 -9 3 -8
-3 -19 -12 -24 -18 -11 -15 -12 30 -15 26 -1 53 -16 28 -16 -10 0 -10 -3 -1
-14 8 -9 8 -16 2 -20 -5 -4 -12 3 -16 14 -3 11 -11 20 -17 20 -6 0 -6 -6 2
-15 16 -19 6 -20 -13 0 -13 12 -15 11 -13 -10 1 -17 4 -21 13 -13 9 7 11 4 10
-10 -1 -13 -8 -20 -19 -19 -19 1 -21 6 -20 50 0 15 -4 27 -10 27 -6 0 -8 -3
-5 -7 4 -3 1 -13 -6 -21 -9 -13 -9 -14 1 -8 16 10 15 -2 -2 -19 -16 -17 -27
-10 -19 13 4 14 3 15 -5 2 -8 -10 -8 -18 0 -27 6 -8 8 -16 4 -20 -3 -4 -13 2
-21 13 -15 19 -15 19 -8 0 4 -13 3 -17 -5 -12 -7 4 -20 9 -31 11 -14 2 -18 -2
-16 -18 1 -12 3 -22 5 -22 7 0 5 -47 -3 -52 -6 -3 -7 -1 -3 5 3 6 1 14 -5 18
-7 4 -8 9 -1 13 6 4 5 11 -4 18 -8 8 -15 9 -19 3 -3 -6 -2 -10 4 -10 6 0 8 -7
4 -16 -4 -12 -7 -13 -14 -3 -4 8 -12 10 -16 5 -4 -5 -2 -11 5 -13 6 -3 9 -9 6
-14 -4 -6 -11 -6 -19 1 -9 8 -15 8 -20 0 -4 -6 -3 -10 2 -9 22 4 24 -3 8 -21
-10 -11 -13 -20 -7 -20 7 0 12 -4 12 -9 0 -5 -8 -8 -17 -6 -10 1 -12 0 -5 -2
15 -6 15 -16 0 -31 -17 -17 -33 -15 -18 3 9 10 9 15 1 15 -6 0 -12 -4 -12 -10
-1 -5 -2 -14 -3 -20 0 -5 -11 -16 -22 -25 -20 -14 -24 -12 -53 21 -18 22 -36
34 -44 31 -8 -3 -19 -1 -23 3 -5 5 -15 5 -24 -1 -13 -9 -12 -10 3 -5 25 8 20
-6 -14 -32 -25 -20 -28 -21 -23 -5 4 13 2 12 -8 -4 -21 -35 -92 -85 -72 -50 4
7 3 9 -2 4 -5 -5 -9 -14 -9 -20 0 -7 -9 -11 -18 -11 -10 1 -16 0 -13 -3 9 -9
-31 -44 -52 -46 -12 0 -18 -6 -15 -14 3 -9 0 -11 -10 -7 -8 3 -18 0 -23 -7 -5
-8 -3 -10 7 -4 8 4 -2 -9 -21 -31 -19 -21 -25 -30 -12 -20 12 11 22 14 22 8 0
-18 77 -105 102 -115 10 -4 10 -8 -2 -17 -12 -9 -10 -10 9 -5 19 6 23 4 18 -8
-4 -11 0 -13 14 -10 11 3 21 -1 25 -11 3 -9 10 -16 15 -16 17 0 89 -35 89 -43
0 -5 -7 -7 -15 -3 -8 3 -15 1 -15 -4 0 -6 5 -10 12 -10 6 0 3 -9 -7 -20 -10
-11 -13 -20 -8 -20 6 0 14 7 17 16 3 8 11 12 17 8 8 -4 7 -9 -2 -15 -8 -5 -9
-9 -3 -9 6 0 19 10 30 22 13 16 14 19 2 10 -11 -9 -18 -10 -23 -2 -11 18 5 31
26 20 11 -6 24 -8 29 -5 5 3 11 1 15 -5 4 -6 11 -8 16 -5 5 4 9 1 9 -4 0 -14
-17 -14 -25 -1 -4 6 -12 5 -21 -4 -18 -19 -18 -32 1 -16 8 6 19 9 25 5 6 -4
17 -1 25 5 11 9 19 9 28 1 7 -6 28 -9 45 -6 18 2 32 0 32 -5 0 -12 -17 -22
-23 -13 -2 5 -3 3 -1 -3 1 -7 -6 -21 -17 -33 -11 -12 -15 -21 -10 -21 6 0 15
9 21 21 9 16 14 18 26 8 10 -8 14 -8 14 0 0 6 -5 11 -11 11 -5 0 -7 5 -4 10 5
8 12 7 23 -2 15 -11 15 -11 4 4 -10 12 -10 18 -1 24 8 5 9 3 4 -6 -6 -9 -2
-10 15 -5 29 9 80 13 76 6 -1 -4 8 -16 21 -28 23 -22 34 -18 11 5 -16 16 4 16
22 0 12 -11 12 -10 1 4 -14 19 -7 23 27 19 6 -1 12 2 12 7 0 13 53 8 58 -5 2
-7 -1 -13 -7 -13 -6 0 -11 5 -11 11 0 8 -4 9 -13 0 -8 -6 -16 -9 -18 -6 -3 2
-5 -5 -6 -15 -2 -22 12 -34 27 -25 8 5 7 12 -2 22 -11 14 -10 15 9 9 15 -5 26
0 39 17 18 21 34 32 59 36 6 1 20 9 33 17 12 8 22 12 22 8 0 -4 6 -2 13 4 7 6
18 7 26 2 8 -4 21 -6 29 -2 10 3 13 1 8 -6 -4 -7 -2 -12 4 -12 7 0 10 6 7 13
-2 6 -11 12 -20 12 -26 0 -26 9 -3 27 20 14 26 15 49 3 24 -13 25 -12 15 5 -7
10 -17 16 -23 12 -5 -3 20 23 56 59 36 35 75 80 85 99 18 35 20 41 23 60 0 6
5 10 9 10 16 0 9 -35 -11 -57 -11 -13 -16 -23 -11 -23 5 0 15 9 22 20 7 11 19
20 26 20 20 0 29 17 15 26 -8 5 -9 3 -4 -6 5 -8 3 -11 -4 -9 -7 3 -13 9 -13
14 0 6 -4 16 -10 23 -8 9 -6 12 6 12 9 0 16 -3 16 -8 0 -4 9 -13 20 -19 14 -9
21 -10 26 -1 4 6 3 8 -4 4 -6 -3 -19 5 -30 19 -11 13 -22 21 -26 17 -4 -3 -3
6 3 21 6 15 8 27 5 27 -4 0 -1 6 5 14 6 8 11 18 9 22 -1 5 2 25 7 44 5 19 9
40 9 45 1 15 20 18 25 4 2 -7 -1 -9 -9 -4 -9 5 -11 4 -6 -3 4 -6 2 -21 -5 -33
-6 -12 -7 -19 -1 -15 5 3 15 19 22 36 7 16 17 30 22 30 5 0 7 4 4 9 -3 5 1 12
10 15 9 4 14 9 11 13 -4 3 -13 0 -22 -7 -8 -7 -15 -8 -15 -2 0 17 27 33 46 26
15 -5 16 -4 4 5 -8 5 -11 13 -7 17 3 4 13 1 22 -6 12 -10 16 -9 21 4 4 9 4 20
0 23 -3 4 -6 -2 -6 -12 0 -14 -3 -15 -15 -5 -13 10 -19 9 -38 -6 -12 -11 -25
-23 -29 -29 -5 -6 -8 -4 -8 5 0 12 -2 12 -9 1 -5 -8 -11 -9 -15 -3 -3 5 8 15
24 22 30 12 42 40 18 40 -9 0 -8 4 2 11 12 8 11 9 -5 5 -11 -3 -27 -1 -35 4
-9 6 -11 10 -3 10 7 0 10 7 7 18 -5 14 -4 14 4 2 6 -8 8 -19 6 -25 -3 -5 2 -1
10 9 9 11 16 24 16 29 0 4 4 6 9 3 4 -3 7 6 5 20 -1 16 6 34 18 46 l21 21 18
-22 c17 -20 18 -21 16 -2 0 11 -4 19 -7 18 -3 -1 -5 2 -5 8 0 5 4 9 8 7 5 -1
6 2 2 8 -4 6 -19 0 -40 -16 l-34 -25 3 23 c1 13 6 29 10 36 4 7 2 19 -4 27 -8
10 -9 15 -2 15 6 0 16 -8 21 -17 6 -10 11 -13 11 -8 0 6 -5 16 -11 22 -8 8 -8
13 0 17 6 4 11 2 11 -3 0 -6 5 -11 11 -11 8 0 7 6 -2 17 -12 15 -12 16 3 11
22 -9 56 16 38 27 -8 5 -11 4 -6 -3 9 -14 -15 -21 -37 -10 -9 5 -21 7 -26 4
-4 -3 -8 8 -8 24 0 25 3 28 16 17 10 -8 13 -8 8 0 -4 6 -4 13 0 16 5 2 2 2 -4
1 -7 -2 -13 0 -13 5 0 16 13 20 34 9 18 -10 19 -9 9 4 -8 9 -9 18 -3 26 7 9 7
9 -2 2 -22 -18 -32 -10 -13 10 10 11 14 20 9 20 -5 0 -15 -9 -22 -20 -7 -11
-17 -20 -24 -20 -6 0 -3 9 7 20 10 11 13 20 7 20 -7 0 -12 5 -12 11 0 6 6 9
14 6 18 -7 40 17 33 35 -4 9 -6 7 -6 -4 -1 -19 -25 -18 -44 1 -10 11 -8 12 11
6 22 -6 31 8 12 20 -5 3 -10 11 -10 17 0 7 7 5 18 -4 27 -23 42 -30 42 -19 0
6 -6 11 -14 11 -7 0 -19 7 -26 15 -7 8 -16 12 -21 10 -4 -3 -7 4 -6 15 1 11 5
20 11 20 5 0 1 9 -9 20 -10 11 -13 20 -7 20 7 0 17 -9 24 -20 7 -11 17 -20 22
-20 4 0 2 8 -5 17 -12 15 -12 16 3 11 22 -9 56 16 38 27 -8 5 -11 4 -7 -2 13
-20 -22 -22 -45 -3 -20 17 -21 21 -8 31 13 9 12 10 -3 5 -12 -4 -17 -2 -14 6
2 7 13 12 23 10 16 -2 16 -1 4 7 -9 7 -18 7 -24 1 -13 -13 -36 -13 -36 0 0 6
6 9 13 8 7 -2 12 7 11 24 -1 24 2 27 21 22 13 -3 26 -1 29 5 5 7 -1 10 -15 8
-12 -1 -24 3 -26 10 -2 6 4 10 14 9 10 -2 12 -1 6 1 -7 3 -13 9 -13 14 0 6 6
7 13 3 6 -4 3 2 -7 14 -11 12 -17 25 -13 28 3 3 15 -8 28 -25 23 -31 39 -40
39 -20 0 5 -5 7 -11 3 -8 -4 -9 1 -5 17 3 13 3 18 0 11 -5 -10 -10 -9 -25 4
-22 20 -26 43 -5 25 8 -6 18 -11 22 -10 22 4 35 -2 28 -13 -5 -7 -3 -8 6 -3
18 11 -16 36 -38 27 -15 -5 -15 -4 -3 11 9 11 10 17 2 17 -6 0 -11 -5 -11 -12
0 -6 -3 -8 -7 -4 -10 10 -11 46 -1 52 4 3 8 0 8 -5 0 -6 5 -11 11 -11 8 0 7 6
-2 17 -12 15 -12 16 3 11 22 -9 56 16 38 27 -8 5 -11 4 -6 -3 9 -14 -15 -21
-37 -10 -9 5 -21 7 -26 4 -4 -3 -8 8 -8 24 0 25 3 28 16 17 10 -8 13 -8 8 0
-4 6 -4 13 0 16 5 2 2 2 -4 1 -7 -2 -13 0 -13 5 0 16 13 20 34 9 18 -10 19 -9
9 4 -7 8 -10 18 -6 22 4 4 -1 4 -11 0 -15 -6 -17 -4 -11 7 8 12 6 12 -8 0 -10
-8 -20 -11 -23 -8 -3 3 3 12 15 19 24 15 28 30 6 22 -8 -4 -15 -1 -15 5 0 6 5
11 12 11 6 0 4 8 -6 19 -17 19 -17 20 6 17 13 -1 30 -6 38 -11 13 -7 13 -6 0
10 -14 17 -13 18 3 12 9 -3 17 -2 17 3 0 14 -24 12 -39 -2 -11 -11 -14 -10
-18 0 -4 10 -8 10 -19 1 -11 -9 -16 -6 -23 12 -10 27 -7 34 8 24 6 -3 8 -12 5
-18 -5 -9 -3 -8 6 0 9 8 18 9 25 3 6 -5 16 -5 25 2 13 8 12 9 -1 5 -9 -3 -22
0 -28 6 -6 6 -11 7 -11 3 0 -5 -7 -3 -15 4 -9 7 -18 10 -22 6 -10 -10 -11 -46
-1 -46 5 0 6 -5 2 -12 -16 -25 -11 -73 9 -90 11 -10 17 -19 14 -19 -4 -1 -11
-2 -16 -3 -5 0 -13 -5 -18 -10 -4 -5 -3 -6 3 -3 7 4 17 1 23 -6 8 -11 4 -14
-20 -14 -19 0 -25 3 -17 9 7 4 9 8 5 8 -4 0 -3 9 3 19 7 14 7 22 -2 27 -6 4
-8 3 -4 -4 3 -6 2 -13 -3 -16 -10 -7 -9 20 2 30 4 4 2 13 -4 21 -7 8 -8 13 -1
13 9 0 9 14 -1 83 -3 18 1 31 11 36 9 5 17 16 18 25 1 9 -2 14 -7 10 -5 -3 -7
-10 -4 -15 4 -5 -1 -9 -9 -9 -17 0 -17 20 -1 33 7 5 7 10 0 15 -5 4 -10 14
-10 22 0 8 5 18 10 22 6 5 4 8 -5 8 -13 0 -13 1 0 10 13 8 13 10 1 10 -11 0
-10 4 5 16 10 8 14 13 8 10 -14 -7 -22 10 -19 41 1 12 -3 19 -8 16 -6 -3 -17
3 -25 13 -12 16 -14 16 -9 2 6 -16 -3 -18 -111 -15 -87 1 -116 5 -114 15 1 6
-3 12 -9 12 -6 0 -9 -7 -5 -15z m-124 -275 c0 -5 -5 -10 -11 -10 -5 0 -7 5 -4
10 3 6 8 10 11 10 2 0 4 -4 4 -10z m465 -83 c-4 -43 -3 -43 -16 -30 -15 15
-20 63 -8 63 6 0 7 6 3 13 -6 9 -4 9 8 -1 10 -8 15 -25 13 -45z m-515 -34 c15
-33 20 -64 8 -57 -4 3 -8 0 -8 -7 0 -8 -5 -8 -16 2 -15 12 -14 14 4 22 20 9
20 9 1 28 -20 20 -25 39 -11 39 5 0 15 -12 22 -27z m528 -32 c-7 -11 -16 -17
-22 -14 -5 3 -1 12 9 20 25 18 27 17 13 -6z m-8 -52 c0 -13 -28 -11 -32 3 -3
7 -7 5 -11 -6 -4 -10 -3 -15 3 -11 5 3 18 -3 30 -15 11 -11 20 -15 20 -10 0 6
5 10 12 10 8 0 7 -6 -4 -16 -17 -17 -43 -10 -32 8 4 6 3 9 -2 5 -5 -3 -20 1
-34 9 -14 7 -19 13 -12 14 7 0 11 4 8 9 -4 5 0 11 6 14 18 5 48 -3 48 -14z
m-559 -70 c-40 -35 -41 -35 -41 -8 0 11 4 18 8 15 4 -2 19 4 32 14 38 29 39
12 1 -21z m525 19 c17 -1 48 -28 40 -35 -4 -4 -11 -1 -15 6 -6 9 -11 10 -15 2
-4 -6 -2 -11 4 -11 6 0 8 -5 5 -10 -4 -6 -10 -8 -15 -5 -5 3 -12 0 -16 -7 -4
-7 -4 -10 1 -6 4 4 14 3 22 -4 11 -9 13 -8 11 2 -2 7 3 15 11 17 10 4 11 1 3
-13 -6 -11 -23 -19 -42 -20 -18 -1 -29 1 -24 5 14 10 17 44 4 36 -9 -5 -8 -1
0 16 10 17 10 24 1 27 -6 2 -8 8 -5 14 4 7 9 6 14 -2 4 -6 11 -12 16 -12z
m-473 -32 c4 -10 1 -13 -8 -9 -8 3 -12 9 -9 14 7 12 11 11 17 -5z m499 -69
c16 -5 16 -10 4 -39 -7 -18 -12 -44 -10 -58 3 -17 1 -21 -5 -12 -6 11 -10 10
-15 -4 -5 -12 -1 -24 11 -34 26 -22 63 -69 41 -51 -20 15 -44 5 -30 -12 13
-17 11 -47 -3 -47 -6 0 -12 17 -13 38 -2 57 -5 72 -11 67 -10 -11 -10 -40 1
-52 8 -10 7 -13 -3 -13 -10 0 -10 -3 -1 -12 9 -9 9 -15 0 -25 -6 -8 -7 -13 -2
-12 21 4 33 -3 49 -27 9 -15 12 -23 6 -20 -16 10 -34 -3 -23 -17 12 -16 10
-73 -3 -67 -5 3 -9 11 -9 17 1 7 -2 10 -7 8 -4 -3 -7 4 -6 15 1 12 6 19 14 16
19 -8 16 2 -5 13 -16 9 -18 5 -18 -27 0 -40 29 -77 53 -67 11 3 10 -1 -2 -17
-9 -14 -27 -23 -46 -24 -22 -1 -27 1 -18 7 8 5 10 9 6 9 -4 0 -3 9 3 19 7 14
7 22 -2 27 -6 4 -8 3 -4 -4 3 -6 2 -13 -3 -16 -10 -7 -9 20 2 30 4 4 2 13 -4
21 -6 7 -7 13 -2 13 11 0 11 50 0 68 -5 6 -4 12 0 12 5 0 9 11 9 25 0 14 -4
25 -10 25 -6 0 -5 5 2 12 8 8 8 17 0 31 -5 11 -6 22 -2 26 15 10 17 44 3 35
-8 -5 -9 -3 -3 7 13 21 14 39 2 39 -6 0 -4 7 3 17 16 18 16 23 -1 33 -8 5 -7
12 5 24 9 9 20 15 23 13 4 -2 15 -7 24 -10z m-462 -5 c0 -5 -3 -12 -7 -16 -11
-11 -10 -30 0 -37 5 -4 5 -15 -1 -26 -6 -11 -7 -25 -2 -33 5 -8 5 -21 0 -29
-4 -8 -4 -25 1 -38 5 -13 4 -25 -2 -28 -5 -4 -7 -11 -3 -16 8 -14 13 -59 5
-55 -3 2 -12 -3 -20 -11 -12 -13 -11 -14 10 -8 13 3 20 3 14 -2 -12 -10 -13
-33 -1 -52 6 -10 5 -12 -2 -7 -7 4 -12 3 -12 -2 0 -5 -10 -14 -22 -21 -18 -9
-18 -10 -3 -5 29 9 41 11 33 7 -5 -3 -3 -13 2 -23 7 -13 7 -21 0 -25 -5 -3
-10 -11 -10 -16 0 -6 5 -7 12 -3 7 4 8 3 4 -5 -4 -6 -13 -8 -19 -4 -7 3 -4 -2
5 -13 21 -24 21 -24 9 -56 -7 -20 -7 -28 2 -31 9 -3 9 -7 0 -18 -6 -8 -11 -18
-11 -24 -1 -15 -22 -18 -22 -3 0 8 -5 6 -11 -6 -9 -14 -8 -21 2 -27 12 -8 12
-10 1 -18 -11 -7 -11 -9 2 -14 9 -4 16 -10 15 -14 -4 -22 2 -34 14 -27 9 6 9
4 -1 -8 -9 -12 -10 -18 -2 -23 6 -4 9 -13 6 -21 -3 -8 0 -14 7 -15 9 0 8 -2
-1 -6 -10 -4 -10 -8 0 -21 10 -14 10 -15 -2 -4 -23 20 -31 14 -15 -12 16 -23
15 -24 -4 -19 -13 3 -21 1 -21 -6 0 -7 4 -10 9 -7 5 3 14 -1 20 -8 9 -11 9
-16 0 -22 -7 -4 -9 -3 -5 4 3 6 2 13 -3 16 -5 3 -12 -1 -15 -9 -3 -9 1 -18 9
-21 8 -4 12 -10 9 -15 -3 -5 -14 1 -24 13 -10 13 -21 20 -25 16 -4 -4 0 -14 9
-23 25 -26 19 -37 -7 -12 -16 15 -20 26 -14 35 6 8 5 12 -2 12 -6 0 -14 -6
-17 -14 -6 -15 -54 -19 -51 -3 1 5 -4 12 -11 14 -8 3 -10 -1 -5 -13 5 -13 3
-16 -9 -11 -9 3 -26 -2 -39 -10 -12 -9 -19 -11 -15 -5 4 7 3 12 -3 12 -14 0
-21 -14 -13 -25 11 -15 43 -18 40 -3 -3 14 103 20 125 6 6 -4 8 -8 2 -8 -5 0
1 -7 15 -15 14 -8 19 -14 13 -15 -7 0 -21 8 -31 18 -20 19 -52 28 -52 13 0 -5
6 -11 13 -14 6 -2 9 -7 6 -11 -3 -3 -14 2 -25 12 -22 20 -65 27 -61 9 1 -7 -6
-11 -16 -11 -10 1 -16 -3 -14 -10 3 -6 10 -10 16 -8 9 2 9 -3 1 -17 -14 -27
-13 -31 8 -24 18 7 17 5 -9 -15 -14 -10 -16 -9 -15 10 2 29 -14 69 -26 62 -4
-3 -5 -10 -2 -16 15 -24 13 -66 -4 -79 -14 -11 -15 -11 -4 1 15 18 16 38 1 23
-6 -6 -17 -9 -24 -7 -7 3 -16 1 -20 -5 -3 -6 1 -11 9 -11 18 0 20 -8 7 -29 -7
-11 -10 -9 -16 9 -6 18 -9 20 -16 9 -6 -9 -9 -10 -9 -2 0 7 -9 10 -21 8 -17
-4 -19 -2 -9 10 8 10 9 15 2 15 -6 0 -14 -5 -17 -10 -4 -6 -11 -7 -17 -4 -5 4
11 25 37 50 34 31 46 48 41 60 -4 11 2 26 15 41 31 32 41 29 21 -6 -9 -16 -21
-27 -27 -24 -5 3 -4 0 2 -7 9 -10 10 -17 2 -27 -7 -7 -9 -13 -5 -13 15 0 22
-2 34 -12 8 -7 12 -7 12 0 0 5 -8 13 -17 16 -15 6 -15 8 -3 16 13 9 13 10 0
10 -8 1 -3 7 13 16 15 8 27 17 27 20 0 2 -9 0 -20 -6 -16 -9 -18 -8 -14 5 4 9
9 14 12 11 2 -3 12 -1 22 4 19 10 20 48 1 60 -18 10 -5 31 15 23 9 -3 13 -12
10 -22 -4 -11 -2 -10 9 3 8 11 15 14 15 8 0 -21 16 -13 29 15 11 23 14 25 22
12 11 -20 54 -19 54 1 0 8 5 15 10 15 20 0 34 16 28 30 -3 8 0 15 6 15 6 0 11
5 11 11 0 5 -4 8 -9 4 -5 -3 -12 -1 -15 4 -4 5 -17 8 -31 6 -30 -3 -30 -3 -3
21 18 16 21 17 15 2 -4 -12 -2 -15 8 -12 13 5 13 34 0 67 -4 10 -4 17 1 15 5
-2 19 7 32 20 12 12 17 22 10 22 -10 0 -10 2 -2 8 7 4 11 21 11 39 -1 24 -5
29 -14 21 -10 -8 -10 -14 -2 -25 19 -22 4 -25 -16 -3 -11 13 -14 20 -6 20 7 0
10 7 7 18 -6 19 7 46 19 40 4 -1 10 8 12 22 3 24 3 24 -12 5 -15 -20 -15 -20
-30 -1 -16 21 -20 37 -7 35 21 -4 31 3 29 21 -1 13 -6 19 -15 15 -7 -2 -10 -1
-7 4 3 5 1 12 -5 16 -5 3 -10 11 -10 18 0 8 3 8 12 -1 14 -14 32 -16 23 -3 -3
5 2 16 10 24 17 17 20 31 6 22 -13 -8 -32 30 -25 48 3 8 0 18 -5 22 -6 3 -9
11 -6 16 7 11 26 12 24 2 -1 -5 -1 -16 0 -25 1 -22 18 -24 18 -3 0 8 -5 15
-11 15 -6 0 -4 5 4 10 11 7 11 10 2 10 -8 0 -10 5 -5 13 11 18 10 39 -4 62 -7
11 -13 24 -13 30 0 5 4 4 9 -4 6 -9 11 -10 15 -2 4 6 2 12 -3 12 -6 1 -15 3
-21 4 -5 1 -15 3 -21 4 -5 0 -8 5 -4 11 3 5 13 6 23 3 9 -3 14 -3 10 2 -4 4
-3 14 3 22 13 14 39 18 39 5z m-50 -79 c29 -61 16 -87 -26 -54 -15 12 -34 21
-42 21 -13 0 -12 3 3 20 22 24 35 26 35 4 0 -9 -5 -12 -12 -8 -7 4 -6 -1 3
-10 9 -9 22 -14 31 -11 15 6 14 9 -3 26 -20 20 -25 39 -11 39 5 0 15 -12 22
-27z m520 -404 c0 -13 -28 -11 -32 3 -3 7 -7 5 -11 -6 -4 -10 -3 -15 3 -11 5
3 18 -3 29 -14 13 -13 21 -16 24 -8 2 7 8 9 12 5 4 -4 -6 -15 -24 -25 -17 -10
-31 -22 -31 -26 0 -5 4 -6 9 -2 13 8 24 -12 14 -27 -4 -7 -8 -31 -8 -53 -1
-22 -4 -50 -8 -62 -8 -21 -9 -21 -27 -6 -14 12 -16 20 -9 29 7 8 6 14 -2 19
-8 6 -8 10 2 15 10 7 10 11 0 24 -8 9 -9 16 -4 16 5 0 9 9 10 20 1 12 -3 18
-9 14 -5 -4 -4 4 2 17 10 18 10 24 0 27 -9 3 -9 6 1 13 12 8 11 11 -1 19 -11
7 -11 10 -2 10 7 0 11 4 8 9 -4 5 0 11 6 14 18 5 48 -3 48 -14z m-530 -39 c0
-5 -4 -10 -10 -10 -5 0 -10 5 -10 10 0 6 5 10 10 10 6 0 10 -4 10 -10z m60
-99 c0 -4 -3 -11 -7 -15 -11 -10 -12 -36 -2 -36 5 0 9 -4 9 -10 0 -5 -7 -10
-17 -10 -9 0 -13 3 -10 7 4 3 2 12 -4 19 -7 8 -7 14 1 19 8 5 6 11 -5 18 -13
10 -12 12 10 13 14 1 25 -1 25 -5z m435 -188 c-17 -12 -20 -11 -26 4 -10 26
-1 35 23 22 21 -11 21 -12 3 -26z m5 -76 c0 -4 -9 -2 -20 5 -13 9 -16 14 -7
20 11 6 27 -8 27 -25z m-589 -72 c3 2 5 -5 6 -16 2 -18 0 -18 -18 4 -10 14
-19 29 -19 34 0 4 7 0 14 -9 7 -10 15 -16 17 -13z m-26 -23 c6 2 11 -8 12 -22
2 -24 2 -24 -5 -2 -4 13 -11 22 -17 20 -5 -2 -11 8 -12 22 -2 24 -2 24 5 2 4
-13 12 -22 17 -20z m70 19 c-3 -6 -11 -11 -16 -11 -5 0 -4 6 3 14 14 16 24 13
13 -3z m22 -3 c-2 -7 3 -19 12 -26 14 -11 13 -12 -6 -2 -14 6 -20 16 -17 25 7
18 17 20 11 3z m-17 -36 c0 -5 -7 -9 -15 -9 -8 0 -15 4 -15 9 0 4 7 8 15 8 8
0 15 -4 15 -8z m-80 -22 c0 -5 -8 -6 -17 -3 -16 6 -16 5 -4 -10 8 -10 11 -20
7 -24 -3 -3 -6 -1 -6 6 0 7 -4 10 -9 7 -7 -5 -8 11 -2 32 3 7 31 0 31 -8z
m-67 -30 c-20 -23 -20 -23 -29 -8 -4 6 -3 8 3 5 6 -4 13 0 17 8 3 8 10 15 16
15 5 0 2 -9 -7 -20z m137 16 c0 -2 -7 -7 -16 -10 -8 -3 -12 -2 -9 4 6 10 25
14 25 6z m65 -406 c3 -5 1 -10 -4 -10 -6 0 -11 5 -11 10 0 6 2 10 4 10 3 0 8
-4 11 -10z m-135 -14 c0 -3 -4 -8 -10 -11 -5 -3 -10 -1 -10 4 0 6 5 11 10 11
6 0 10 -2 10 -4z m85 -36 c3 -5 1 -10 -4 -10 -6 0 -11 5 -11 10 0 6 2 10 4 10
3 0 8 -4 11 -10z"/>
<path d="M2176 2143 c-3 -4 -1 -12 5 -20 6 -7 7 -13 2 -13 -5 0 -9 -14 -9 -31
0 -28 1 -29 12 -14 8 10 11 22 7 28 -3 5 1 13 8 18 12 7 11 9 -1 9 -12 0 -12
2 -2 9 11 7 11 9 -1 14 -8 3 -18 3 -21 0z"/>
<path d="M2170 1861 c0 -9 29 -37 31 -30 0 2 2 11 4 19 1 10 -5 16 -16 17 -11
1 -19 -2 -19 -6z"/>
<path d="M2173 1706 c-3 -6 -3 -8 2 -4 4 4 13 3 20 -2 8 -7 12 -5 12 3 0 16
-25 18 -34 3z"/>
<path d="M1720 2130 c-9 -6 -10 -10 -3 -10 6 0 15 5 18 10 8 12 4 12 -15 0z"/>
<path d="M1725 2069 c-4 -6 -5 -12 -2 -15 2 -3 7 2 10 11 7 17 1 20 -8 4z"/>
<path d="M1707 1903 c3 -7 6 -13 8 -13 2 0 5 6 8 13 3 8 -1 14 -8 14 -7 0 -11
-6 -8 -14z"/>
<path d="M1720 1570 c-9 -6 -10 -10 -3 -10 6 0 15 5 18 10 8 12 4 12 -15 0z"/>
<path d="M1705 1420 c-3 -5 -3 -10 1 -10 4 0 -1 -9 -11 -20 -10 -11 -22 -17
-27 -14 -4 3 -8 2 -7 -3 1 -4 -1 -16 -6 -26 -6 -14 -10 -15 -21 -6 -8 6 -14 8
-14 4 0 -4 -6 -2 -14 4 -12 10 -17 8 -26 -9 -6 -12 -18 -19 -25 -16 -16 6 -39
-19 -31 -33 4 -5 2 -12 -4 -16 -18 -11 0 -26 19 -15 10 5 22 6 26 2 5 -4 5 -2
1 5 -11 19 12 25 36 9 20 -14 24 -14 39 0 14 13 21 13 40 4 19 -11 21 -10 16
4 -9 22 2 48 17 39 6 -4 5 1 -3 10 -11 14 -11 18 3 23 15 6 15 8 -1 20 -17 13
-17 14 0 8 18 -7 24 10 7 21 -6 4 -8 11 -5 16 4 5 4 9 1 9 -3 0 -8 -4 -11 -10z
m-2 -63 c-4 -7 -8 -16 -8 -22 0 -5 -7 -11 -15 -11 -8 -1 -19 -2 -24 -3 -6 0
-2 -7 8 -14 16 -12 16 -13 -6 -13 -13 0 -29 7 -36 15 -12 14 -13 14 -9 -1 8
-24 -4 -30 -25 -11 -11 9 -18 11 -18 5 0 -7 -5 -12 -11 -12 -6 0 0 13 13 29
16 20 27 26 36 18 6 -5 12 -6 12 -2 0 4 6 2 13 -4 10 -8 19 -4 36 19 20 28 51
34 34 7z m-160 -52 c-3 -9 -8 -14 -10 -11 -3 3 -2 9 2 15 9 16 15 13 8 -4z m7
-29 c0 -2 -7 -7 -16 -10 -8 -3 -12 -2 -9 4 6 10 25 14 25 6z"/>
<path d="M1682 1358 c-15 -15 -15 -28 0 -28 6 0 8 3 5 7 -4 3 -2 12 4 20 14
16 7 17 -9 1z"/>
<path d="M1586 1321 c-3 -5 2 -15 12 -22 15 -13 16 -12 4 3 -10 13 -10 17 0
21 9 4 9 6 1 6 -6 1 -14 -3 -17 -8z"/>
<path d="M1620 1326 c0 -2 8 -10 18 -17 15 -13 16 -12 3 4 -13 16 -21 21 -21
13z"/>
<path d="M1473 1215 c0 -8 4 -12 9 -9 4 3 8 9 8 15 0 5 -4 9 -8 9 -5 0 -9 -7
-9 -15z"/>
<path d="M1401 1166 c-15 -16 -19 -26 -12 -31 6 -3 9 -10 6 -15 -9 -14 23 -5
43 13 22 20 36 22 26 5 -5 -9 -2 -9 9 1 9 7 17 18 17 24 0 6 -3 7 -7 4 -3 -4
-12 -2 -20 4 -7 6 -13 8 -13 4 0 -4 -6 -2 -13 4 -11 8 -19 5 -36 -13z m55 2
c4 4 -3 -5 -16 -20 -18 -20 -28 -24 -38 -16 -10 9 -9 14 4 29 12 13 21 16 29
9 6 -5 16 -6 21 -2z"/>
<path d="M1411 1156 c-9 -11 -9 -16 0 -22 7 -4 9 -3 5 4 -3 5 0 12 6 15 7 2
10 7 7 11 -3 4 -12 0 -18 -8z"/>
<path d="M2174 1618 c-3 -4 -4 -8 -2 -9 25 -6 35 -5 35 5 0 14 -25 17 -33 4z"/>
<path d="M2200 1562 c0 -7 -5 -11 -12 -9 -8 1 -12 -13 -13 -43 0 -25 -5 -52
-10 -60 -7 -12 -6 -13 7 -3 8 7 17 12 19 10 2 -1 1 2 -3 8 -10 12 -10 28 0 21
4 -2 8 4 8 14 0 10 -4 16 -8 14 -14 -9 -9 9 9 28 9 10 13 21 10 25 -4 3 -7 1
-7 -5z"/>
<path d="M2193 2773 c0 -9 4 -10 14 -2 7 6 13 12 13 14 0 1 -6 2 -13 2 -8 0
-14 -6 -14 -14z"/>
<path d="M2170 2741 c0 -6 4 -13 10 -16 6 -3 7 1 4 9 -7 18 -14 21 -14 7z"/>
<path d="M2309 2703 c-13 -16 -12 -17 4 -4 9 7 17 15 17 17 0 8 -8 3 -21 -13z"/>
<path d="M1610 2699 c0 -5 5 -7 10 -4 6 3 10 8 10 11 0 2 -4 4 -10 4 -5 0 -10
-5 -10 -11z"/>
<path d="M1711 2687 c-13 -21 -12 -21 5 -5 10 10 16 20 13 22 -3 3 -11 -5 -18
-17z"/>
<path d="M2235 2681 c-3 -5 -2 -12 3 -15 5 -3 9 1 9 9 0 17 -3 19 -12 6z"/>
<path d="M1596 2642 c-3 -5 1 -9 9 -9 8 0 12 4 9 9 -3 4 -7 8 -9 8 -2 0 -6 -4
-9 -8z"/>
<path d="M2197 2637 c4 -6 0 -8 -9 -4 -12 4 -14 1 -11 -14 3 -11 6 -18 7 -17
1 2 9 12 19 24 14 17 14 21 2 21 -8 0 -11 -5 -8 -10z"/>
<path d="M1714 2621 c0 -11 5 -17 13 -14 10 4 11 9 2 19 -15 18 -15 18 -15 -5z"/>
<path d="M2219 2613 c-13 -16 -12 -17 4 -4 9 7 17 15 17 17 0 8 -8 3 -21 -13z"/>
<path d="M2395 2620 c-3 -5 -1 -10 4 -10 6 0 11 5 11 10 0 6 -2 10 -4 10 -3 0
-8 -4 -11 -10z"/>
<path d="M1592 2600 c2 -9 -3 -14 -12 -12 -8 2 -11 0 -7 -4 13 -14 35 -12 33
2 -1 7 -6 17 -10 21 -4 4 -6 1 -4 -7z"/>
<path d="M1620 2605 c0 -2 6 -8 13 -14 10 -8 14 -7 14 2 0 8 -6 14 -14 14 -7
0 -13 -1 -13 -2z"/>
<path d="M1664 2591 c0 -11 5 -17 13 -14 10 4 11 9 2 19 -15 18 -15 18 -15 -5z"/>
<path d="M2239 2588 c15 -21 31 -23 31 -6 0 6 -3 8 -7 5 -3 -4 -13 -1 -22 6
-14 11 -14 10 -2 -5z"/>
<path d="M1706 2578 c3 -5 10 -6 15 -3 13 9 11 12 -6 12 -8 0 -12 -4 -9 -9z"/>
<path d="M2207 2579 c7 -7 15 -10 18 -7 3 3 -2 9 -12 12 -14 6 -15 5 -6 -5z"/>
<path d="M2316 2578 c3 -5 10 -6 15 -3 13 9 11 12 -6 12 -8 0 -12 -4 -9 -9z"/>
<path d="M2285 2560 c-3 -6 1 -7 9 -4 18 7 21 14 7 14 -6 0 -13 -4 -16 -10z"/>
<path d="M2396 2562 c-3 -5 1 -9 9 -9 8 0 12 4 9 9 -3 4 -7 8 -9 8 -2 0 -6 -4
-9 -8z"/>
<path d="M1529 2543 c-13 -16 -12 -17 4 -4 9 7 17 15 17 17 0 8 -8 3 -21 -13z"/>
<path d="M1576 2547 c3 -10 9 -15 12 -12 3 3 0 11 -7 18 -10 9 -11 8 -5 -6z"/>
<path d="M2195 2550 c-3 -6 1 -7 9 -4 18 7 21 14 7 14 -6 0 -13 -4 -16 -10z"/>
<path d="M2309 2543 c-13 -16 -12 -17 4 -4 9 7 17 15 17 17 0 8 -8 3 -21 -13z"/>
<path d="M1648 2540 c10 -12 8 -16 -10 -27 -13 -7 -18 -12 -12 -13 5 0 18 6
28 13 17 12 17 14 -1 27 -15 12 -16 12 -5 0z"/>
<path d="M1685 2540 c-3 -5 -2 -10 4 -10 5 0 13 5 16 10 3 6 2 10 -4 10 -5 0
-13 -4 -16 -10z"/>
<path d="M2220 2538 c-12 -8 -12 -9 2 -5 9 3 19 1 22 -6 3 -9 5 -9 5 0 1 18
-13 23 -29 11z"/>
<path d="M1549 2523 c-13 -16 -12 -17 4 -4 9 7 17 15 17 17 0 8 -8 3 -21 -13z"/>
<path d="M1580 2509 c0 -5 -4 -8 -9 -4 -5 3 -12 1 -15 -4 -4 -5 2 -8 11 -7 15
3 33 26 19 26 -3 0 -6 -5 -6 -11z"/>
<path d="M1675 2509 c-4 -6 -5 -12 -2 -15 2 -3 7 2 10 11 7 17 1 20 -8 4z"/>
<path d="M2301 2504 c0 -11 3 -14 6 -6 3 7 2 16 -1 19 -3 4 -6 -2 -5 -13z"/>
<path d="M1595 2489 c-4 -6 -5 -12 -2 -15 2 -3 7 2 10 11 7 17 1 20 -8 4z"/>
<path d="M2296 2463 c-8 -20 9 -40 19 -22 6 8 4 10 -5 4 -9 -5 -10 -2 -5 14 8
25 0 29 -9 4z"/>
<path d="M1479 2453 c-13 -16 -12 -17 4 -4 9 7 17 15 17 17 0 8 -8 3 -21 -13z"/>
<path d="M1530 2466 c0 -2 7 -7 16 -10 8 -3 12 -2 9 4 -6 10 -25 14 -25 6z"/>
<path d="M2359 2453 c-13 -16 -12 -17 4 -4 9 7 17 15 17 17 0 8 -8 3 -21 -13z"/>
<path d="M2395 2460 c-3 -5 -1 -10 4 -10 6 0 11 5 11 10 0 6 -2 10 -4 10 -3 0
-8 -4 -11 -10z"/>
<path d="M1590 2441 c0 -6 4 -13 10 -16 6 -3 7 1 4 9 -7 18 -14 21 -14 7z"/>
<path d="M2250 2443 c0 -4 5 -15 10 -23 8 -13 10 -13 10 2 0 9 -4 20 -10 23
-5 3 -10 3 -10 -2z"/>
<path d="M2287 2419 c7 -7 15 -10 18 -7 3 3 -2 9 -12 12 -14 6 -15 5 -6 -5z"/>
<path d="M2350 2426 c0 -2 7 -7 16 -10 8 -3 12 -2 9 4 -6 10 -25 14 -25 6z"/>
<path d="M2336 2407 c3 -10 9 -15 12 -12 3 3 0 11 -7 18 -10 9 -11 8 -5 -6z"/>
<path d="M1599 2403 c-6 -32 -5 -53 1 -53 4 0 7 14 7 30 0 27 -5 41 -8 23z"/>
<path d="M1623 2385 c0 -8 4 -15 9 -15 4 0 8 4 8 9 0 6 -4 12 -8 15 -5 3 -9
-1 -9 -9z"/>
<path d="M1725 2389 c-4 -6 -5 -12 -2 -15 2 -3 7 2 10 11 7 17 1 20 -8 4z"/>
<path d="M2268 2393 c6 -2 18 -2 25 0 6 3 1 5 -13 5 -14 0 -19 -2 -12 -5z"/>
<path d="M2310 2396 c0 -2 8 -10 18 -17 15 -13 16 -12 3 4 -13 16 -21 21 -21
13z"/>
<path d="M1527 2379 c7 -7 15 -10 18 -7 3 3 -2 9 -12 12 -14 6 -15 5 -6 -5z"/>
<path d="M2307 2347 c-3 -8 1 -14 8 -14 7 0 11 6 8 14 -3 7 -6 13 -8 13 -2 0
-5 -6 -8 -13z"/>
<path d="M2336 2347 c3 -10 9 -15 12 -12 3 3 0 11 -7 18 -10 9 -11 8 -5 -6z"/>
<path d="M1520 2340 c-9 -6 -10 -10 -3 -10 6 0 15 5 18 10 8 12 4 12 -15 0z"/>
<path d="M1550 2339 c0 -3 9 -9 19 -12 13 -3 18 0 15 7 -5 13 -34 18 -34 5z"/>
<path d="M2262 2309 c-8 -12 -9 -18 -4 -15 6 3 12 3 15 -1 2 -5 2 -2 1 5 -2 6
1 12 6 12 6 0 10 5 10 10 0 17 -14 11 -28 -11z"/>
<path d="M1610 2311 c0 -10 19 -25 25 -20 1 2 -3 10 -11 17 -8 7 -14 8 -14 3z"/>
<path d="M2333 2305 c-3 -9 -3 -18 -1 -21 3 -3 8 4 11 16 6 23 -1 27 -10 5z"/>
<path d="M2305 2300 c3 -5 8 -10 11 -10 2 0 4 5 4 10 0 6 -5 10 -11 10 -5 0
-7 -4 -4 -10z"/>
<path d="M1593 2270 c-1 -11 2 -20 5 -20 4 0 8 9 9 20 1 11 -2 20 -5 20 -4 0
-8 -9 -9 -20z"/>
<path d="M1636 2274 c-11 -8 -16 -14 -10 -14 13 0 39 18 34 24 -3 2 -14 -2
-24 -10z"/>
<path d="M2355 2270 c-4 -6 -10 -8 -14 -6 -4 3 -8 -1 -8 -9 0 -13 4 -12 19 2
18 16 22 23 14 23 -3 0 -8 -5 -11 -10z"/>
<path d="M1551 2234 c6 -7 8 -18 5 -23 -4 -5 -3 -12 2 -15 5 -3 8 8 8 23 0 16
-5 28 -13 28 -9 0 -10 -4 -2 -13z"/>
<path d="M2310 2243 c0 -6 8 -17 18 -24 16 -13 16 -13 2 6 -8 11 -16 22 -17
24 -2 2 -3 0 -3 -6z"/>
<path d="M1582 2220 c0 -14 2 -19 5 -12 2 6 2 18 0 25 -3 6 -5 1 -5 -13z"/>
<path d="M2280 2220 c0 -5 5 -10 11 -10 5 0 7 -5 3 -12 -4 -7 -3 -8 4 -4 6 4
9 13 5 21 -6 17 -23 20 -23 5z"/>
<path d="M2333 2183 c1 -21 2 -21 19 -6 21 19 24 31 4 14 -11 -9 -15 -9 -19 1
-3 7 -4 3 -4 -9z"/>
<path d="M1590 2175 c5 -7 7 -15 3 -18 -3 -4 -1 -7 5 -7 6 0 10 8 9 18 0 10
-7 19 -14 19 -9 0 -10 -4 -3 -12z"/>
<path d="M2360 2160 c-12 -7 -10 -9 7 -7 12 0 19 5 17 9 -6 10 -6 10 -24 -2z"/>
<path d="M1540 2140 c-9 -6 -10 -10 -3 -10 6 0 15 5 18 10 8 12 4 12 -15 0z"/>
<path d="M1615 2139 c-4 -6 -4 -13 -1 -16 3 -4 6 -1 6 5 0 7 4 12 10 12 5 0 7
-8 3 -17 -5 -14 -3 -15 7 -6 7 6 9 16 6 22 -9 14 -23 14 -31 0z"/>
<path d="M2314 2142 c4 -3 14 -7 22 -8 9 -1 13 0 10 4 -4 3 -14 7 -22 8 -9 1
-13 0 -10 -4z"/>
<path d="M2335 2110 c-3 -5 -13 -6 -22 -3 -12 5 -12 2 3 -15 19 -23 30 -29 19
-12 -4 6 -1 17 5 25 7 8 10 15 7 15 -3 0 -8 -4 -12 -10z"/>
<path d="M1524 2099 c-2 -4 4 -6 13 -4 10 1 26 -2 35 -7 13 -6 16 -5 12 5 -5
14 -52 18 -60 6z"/>
<path d="M2353 2085 c0 -8 4 -12 9 -9 5 3 6 10 3 15 -9 13 -12 11 -12 -6z"/>
<path d="M1596 2074 c-8 -20 -8 -24 2 -24 4 0 8 9 9 20 2 24 -3 26 -11 4z"/>
<path d="M1527 2059 c7 -7 15 -10 18 -7 3 3 -2 9 -12 12 -14 6 -15 5 -6 -5z"/>
<path d="M2265 2059 c-4 -6 -13 -8 -21 -5 -26 10 -14 -11 13 -23 22 -10 25
-10 15 2 -9 10 -9 16 0 25 7 7 9 12 6 12 -4 0 -10 -5 -13 -11z"/>
<path d="M2290 2060 c0 -5 5 -10 10 -10 6 0 10 5 10 10 0 6 -4 10 -10 10 -5 0
-10 -4 -10 -10z"/>
<path d="M2307 2027 c-3 -8 1 -14 8 -14 7 0 11 6 8 14 -3 7 -6 13 -8 13 -2 0
-5 -6 -8 -13z"/>
<path d="M2336 2027 c3 -10 9 -15 12 -12 3 3 0 11 -7 18 -10 9 -11 8 -5 -6z"/>
<path d="M1518 2019 c-7 -4 3 -7 22 -5 19 2 39 -2 43 -8 6 -7 7 -6 5 4 -5 15
-49 22 -70 9z"/>
<path d="M2262 1989 c-8 -12 -9 -18 -4 -15 6 3 12 3 15 -1 2 -5 2 -2 1 5 -2 6
1 12 6 12 6 0 10 5 10 10 0 17 -14 11 -28 -11z"/>
<path d="M2333 1985 c-3 -9 -3 -18 -1 -21 3 -3 8 4 11 16 6 23 -1 27 -10 5z"/>
<path d="M1500 1985 c0 -2 6 -8 13 -14 10 -8 14 -7 14 2 0 8 -6 14 -14 14 -7
0 -13 -1 -13 -2z"/>
<path d="M1617 1979 c7 -7 15 -10 18 -7 3 3 -2 9 -12 12 -14 6 -15 5 -6 -5z"/>
<path d="M2305 1980 c3 -5 8 -10 11 -10 2 0 4 5 4 10 0 6 -5 10 -11 10 -5 0
-7 -4 -4 -10z"/>
<path d="M1551 1967 c-8 -10 -7 -14 4 -14 8 0 11 5 8 10 -4 6 1 8 11 4 10 -4
15 -3 11 3 -8 14 -20 12 -34 -3z"/>
<path d="M1596 1954 c-8 -20 -8 -24 2 -24 4 0 8 9 9 20 2 24 -3 26 -11 4z"/>
<path d="M2355 1950 c-4 -6 -10 -8 -14 -6 -4 3 -8 -1 -8 -9 0 -13 4 -12 19 2
18 16 22 23 14 23 -3 0 -8 -5 -11 -10z"/>
<path d="M1520 1920 c-9 -6 -10 -10 -3 -10 6 0 15 5 18 10 8 12 4 12 -15 0z"/>
<path d="M1555 1920 c-3 -6 1 -13 9 -16 9 -3 13 -10 10 -15 -3 -5 3 -6 12 -2
11 4 13 8 6 11 -7 2 -10 8 -7 13 4 5 -2 6 -11 2 -12 -4 -15 -3 -10 5 4 7 5 12
2 12 -3 0 -8 -5 -11 -10z"/>
<path d="M2310 1921 c0 -6 4 -13 10 -16 6 -3 7 1 4 9 -7 18 -14 21 -14 7z"/>
<path d="M2292 1896 c7 -8 15 -12 17 -11 5 6 -10 25 -20 25 -5 0 -4 -6 3 -14z"/>
<path d="M2251 1883 c13 -15 39 -18 39 -3 0 5 -7 6 -17 3 -10 -4 -14 -2 -10 4
3 5 0 10 -8 10 -11 0 -12 -4 -4 -14z"/>
<path d="M1600 1878 c-12 -8 -12 -9 3 -4 22 7 20 -22 -3 -41 -13 -12 -13 -14
0 -25 8 -7 17 -22 18 -32 3 -18 2 -19 -15 -5 -16 13 -17 13 -4 -3 7 -10 17
-15 22 -12 13 7 5 44 -12 55 -12 8 -12 10 0 18 16 11 25 47 13 55 -4 3 -14 0
-22 -6z"/>
<path d="M1553 1853 c0 -11 7 -20 14 -20 10 0 10 4 1 16 -7 9 -13 18 -15 20
-1 2 -1 -5 0 -16z"/>
<path d="M2301 1854 c0 -11 3 -14 6 -6 3 7 2 16 -1 19 -3 4 -6 -2 -5 -13z"/>
<path d="M1630 1820 c0 -5 5 -10 10 -10 6 0 10 5 10 10 0 6 -4 10 -10 10 -5 0
-10 -4 -10 -10z"/>
<path d="M2293 1793 c-3 -7 -9 -10 -14 -7 -5 3 -6 -2 -2 -12 5 -14 7 -14 18 5
6 12 14 19 17 16 3 -4 8 -2 12 3 3 5 -2 9 -10 9 -9 0 -18 -6 -21 -14z"/>
<path d="M2329 1783 c-13 -16 -12 -17 4 -4 9 7 17 15 17 17 0 8 -8 3 -21 -13z"/>
<path d="M2361 1776 c-9 -11 -9 -16 1 -22 7 -4 10 -4 6 1 -4 4 -3 14 3 22 6 7
9 13 6 13 -2 0 -10 -6 -16 -14z"/>
<path d="M2315 1750 c-4 -6 -11 -8 -16 -5 -5 4 -9 1 -9 -4 0 -15 11 -13 34 4
11 8 15 15 9 15 -7 0 -15 -5 -18 -10z"/>
<path d="M1550 1741 c0 -6 4 -13 10 -16 6 -3 7 1 4 9 -7 18 -14 21 -14 7z"/>
<path d="M1600 1730 c6 -11 13 -20 16 -20 2 0 0 9 -6 20 -6 11 -13 20 -16 20
-2 0 0 -9 6 -20z"/>
<path d="M1630 1735 c0 -8 2 -15 4 -15 2 0 6 7 10 15 3 8 1 15 -4 15 -6 0 -10
-7 -10 -15z"/>
<path d="M2307 1707 c-3 -8 1 -14 8 -14 7 0 11 6 8 14 -3 7 -6 13 -8 13 -2 0
-5 -6 -8 -13z"/>
<path d="M2336 1707 c3 -10 9 -15 12 -12 3 3 0 11 -7 18 -10 9 -11 8 -5 -6z"/>
<path d="M1570 1700 c0 -5 9 -8 20 -7 21 1 18 10 -5 13 -8 1 -15 -2 -15 -6z"/>
<path d="M1619 1678 c-1 -7 0 -20 1 -27 1 -13 -1 -13 -15 -1 -12 10 -18 11
-28 1 -9 -10 -8 -11 7 -5 13 5 17 4 13 -3 -4 -7 0 -10 10 -9 10 2 18 9 18 17
0 8 4 20 8 27 5 7 4 12 -2 12 -6 0 -12 -6 -12 -12z"/>
<path d="M2262 1669 c-8 -12 -9 -18 -4 -15 6 3 12 3 15 -1 2 -5 2 -2 1 5 -2 6
1 12 6 12 6 0 10 5 10 10 0 17 -14 11 -28 -11z"/>
<path d="M2333 1665 c-3 -9 -3 -18 -1 -21 3 -3 8 4 11 16 6 23 -1 27 -10 5z"/>
<path d="M2305 1660 c3 -5 8 -10 11 -10 2 0 4 5 4 10 0 6 -5 10 -11 10 -5 0
-7 -4 -4 -10z"/>
<path d="M2355 1630 c-4 -6 -10 -8 -14 -6 -4 3 -8 -1 -8 -9 0 -13 4 -12 19 2
18 16 22 23 14 23 -3 0 -8 -5 -11 -10z"/>
<path d="M1553 1613 c0 -11 7 -20 14 -20 10 0 10 4 1 16 -7 9 -13 18 -15 20
-1 2 -1 -5 0 -16z"/>
<path d="M1510 1616 c0 -2 8 -10 18 -17 15 -13 16 -12 3 4 -13 16 -21 21 -21
13z"/>
<path d="M2310 1601 c0 -6 4 -13 10 -16 6 -3 7 1 4 9 -7 18 -14 21 -14 7z"/>
<path d="M1610 1580 c0 -5 5 -10 10 -10 6 0 10 5 10 10 0 6 -4 10 -10 10 -5 0
-10 -4 -10 -10z"/>
<path d="M2280 1586 c0 -2 7 -7 16 -10 8 -3 12 -2 9 4 -6 10 -25 14 -25 6z"/>
<path d="M2258 1552 c-16 -9 -28 -21 -28 -26 0 -5 8 -2 18 7 10 10 24 17 30
17 7 0 12 5 12 10 0 13 0 13 -32 -8z"/>
<path d="M1585 1538 l-20 -21 23 12 c12 6 22 16 22 21 0 13 -2 12 -25 -12z"/>
<path d="M2301 1555 c0 -5 6 -18 14 -29 13 -18 14 -18 12 2 0 11 -4 19 -8 16
-4 -2 -10 2 -12 8 -3 7 -6 9 -6 3z"/>
<path d="M2350 1556 c0 -2 8 -10 18 -17 15 -13 16 -12 3 4 -13 16 -21 21 -21
13z"/>
<path d="M2301 1504 c0 -11 3 -14 6 -6 3 7 2 16 -1 19 -3 4 -6 -2 -5 -13z"/>
<path d="M1554 1502 c4 -3 14 -7 22 -8 9 -1 13 0 10 4 -4 3 -14 7 -22 8 -9 1
-13 0 -10 -4z"/>
<path d="M2245 1482 c-14 -9 -17 -55 -4 -46 6 3 8 12 5 19 -9 24 8 26 21 3 7
-13 12 -18 13 -12 0 18 -25 44 -35 36z"/>
<path d="M1555 1470 c-4 -6 -10 -8 -14 -6 -4 3 -8 -1 -8 -9 0 -12 4 -12 21 2
12 10 23 19 25 20 2 2 -1 3 -7 3 -6 0 -14 -5 -17 -10z"/>
<path d="M1595 1469 c-11 -16 -1 -19 13 -3 7 8 8 14 3 14 -5 0 -13 -5 -16 -11z"/>
<path d="M2335 1470 c-3 -5 -13 -7 -23 -4 -14 5 -15 4 -2 -5 14 -10 7 -16 -15
-11 -5 1 -7 -2 -2 -6 11 -11 47 -12 41 -2 -3 5 0 15 6 23 7 8 10 15 7 15 -3 0
-8 -4 -12 -10z"/>
<path d="M1530 1421 c0 -6 4 -13 10 -16 6 -3 7 1 4 9 -7 18 -14 21 -14 7z"/>
<path d="M2251 1425 c4 -3 19 -8 35 -11 16 -3 26 -2 23 1 -4 3 -19 8 -35 11
-16 3 -26 2 -23 -1z"/>
<path d="M2230 1410 c0 -5 6 -10 13 -10 7 0 13 -10 14 -22 2 -22 1 -22 -22 4
-13 16 -26 24 -29 19 -3 -5 1 -11 9 -15 8 -3 13 -11 11 -18 -1 -7 -1 -9 2 -5
2 4 10 3 18 -4 16 -13 16 -13 19 19 1 14 -5 27 -16 33 -13 6 -19 6 -19 -1z"/>
<path d="M2366 1402 c-3 -5 1 -9 9 -9 8 0 12 4 9 9 -3 4 -7 8 -9 8 -2 0 -6 -4
-9 -8z"/>
<path d="M2280 1395 c0 -5 5 -17 10 -25 5 -8 10 -10 10 -5 0 6 -5 17 -10 25
-5 8 -10 11 -10 5z"/>
<path d="M2330 1396 c0 -2 8 -10 18 -17 15 -13 16 -12 3 4 -13 16 -21 21 -21
13z"/>
<path d="M1465 1380 c-3 -6 1 -7 9 -4 18 7 21 14 7 14 -6 0 -13 -4 -16 -10z"/>
<path d="M2313 1367 c0 -8 6 -14 14 -14 9 0 10 4 2 14 -6 7 -12 13 -14 13 -1
0 -2 -6 -2 -13z"/>
<path d="M1116 1313 c-6 -14 -5 -15 5 -6 7 7 10 15 7 18 -3 3 -9 -2 -12 -12z"/>
<path d="M1180 1320 c-9 -6 -10 -10 -3 -10 6 0 15 5 18 10 8 12 4 12 -15 0z"/>
<path d="M1260 1320 c-9 -6 -10 -10 -3 -10 6 0 15 5 18 10 8 12 4 12 -15 0z"/>
<path d="M1293 1315 c0 -8 4 -12 9 -9 5 3 6 10 3 15 -9 13 -12 11 -12 -6z"/>
<path d="M1335 1321 c-3 -5 -2 -12 3 -15 5 -3 9 1 9 9 0 17 -3 19 -12 6z"/>
<path d="M1395 1320 c-3 -5 -1 -10 4 -10 6 0 11 5 11 10 0 6 -2 10 -4 10 -3 0
-8 -4 -11 -10z"/>
<path d="M1075 1311 c-3 -5 -2 -12 3 -15 5 -3 9 1 9 9 0 17 -3 19 -12 6z"/>
<path d="M2270 1296 c0 -2 9 -6 20 -9 11 -3 18 -1 14 4 -5 9 -34 13 -34 5z"/>
<path d="M2249 1284 c6 -3 7 -12 4 -20 -3 -8 -1 -14 5 -14 14 0 8 33 -7 36 -6
1 -7 0 -2 -2z"/>
<path d="M2346 1282 c-3 -5 1 -9 9 -9 8 0 12 4 9 9 -3 4 -7 8 -9 8 -2 0 -6 -4
-9 -8z"/>
<path d="M1231 1267 c-8 -10 -7 -14 2 -14 8 0 14 6 14 14 0 7 -1 13 -2 13 -2
0 -8 -6 -14 -13z"/>
<path d="M1375 1260 c1 -11 5 -23 10 -27 4 -5 5 -3 2 4 -4 6 -2 13 4 15 7 2 6
8 -3 16 -12 9 -14 8 -13 -8z"/>
<path d="M980 1266 c0 -2 8 -10 18 -17 15 -13 16 -12 3 4 -13 16 -21 21 -21
13z"/>
<path d="M2217 1244 c-13 -18 -14 -22 -3 -18 8 3 17 13 20 21 10 25 3 23 -17
-3z"/>
<path d="M935 1240 c3 -5 8 -10 11 -10 2 0 4 5 4 10 0 6 -5 10 -11 10 -5 0 -7
-4 -4 -10z"/>
<path d="M1153 1227 c-1 -11 -1 -18 0 -16 2 2 8 11 15 20 9 12 9 16 -1 16 -7
0 -14 -9 -14 -20z"/>
<path d="M1255 1229 c-4 -6 -5 -12 -2 -15 2 -3 7 2 10 11 7 17 1 20 -8 4z"/>
<path d="M1344 1228 c3 -15 26 -23 26 -8 0 6 -4 9 -9 6 -5 -4 -12 -1 -14 4 -3
6 -4 5 -3 -2z"/>
<path d="M1280 1220 c-9 -6 -10 -10 -3 -10 6 0 15 5 18 10 8 12 4 12 -15 0z"/>
<path d="M2347 1219 c7 -7 15 -10 18 -7 3 3 -2 9 -12 12 -14 6 -15 5 -6 -5z"/>
<path d="M1075 1200 c6 -30 16 -40 12 -12 -2 12 -6 24 -10 28 -3 4 -4 -4 -2
-16z"/>
<path d="M1175 1210 c-3 -6 1 -7 9 -4 18 7 21 14 7 14 -6 0 -13 -4 -16 -10z"/>
<path d="M2228 1213 c7 -3 16 -2 19 1 4 3 -2 6 -13 5 -11 0 -14 -3 -6 -6z"/>
<path d="M1100 1205 c0 -2 6 -8 13 -14 10 -8 14 -7 14 2 0 8 -6 14 -14 14 -7
0 -13 -1 -13 -2z"/>
<path d="M1294 1199 c-5 -8 -3 -9 6 -4 9 5 10 2 6 -13 -7 -22 5 -35 26 -27 16
7 21 42 7 51 -6 3 -10 0 -8 -7 3 -26 -1 -39 -12 -39 -6 0 -8 8 -4 19 7 22 -10
37 -21 20z"/>
<path d="M2187 1203 c-10 -10 -8 -33 3 -33 5 0 6 7 3 17 -4 11 -3 14 5 9 7 -4
12 -2 12 3 0 12 -13 14 -23 4z"/>
<path d="M2257 1203 c-3 -5 8 -8 25 -9 20 -1 25 2 16 7 -16 11 -35 11 -41 2z"/>
<path d="M1141 1184 c0 -11 3 -14 6 -6 3 7 2 16 -1 19 -3 4 -6 -2 -5 -13z"/>
<path d="M2215 1180 c-3 -5 -3 -10 2 -11 4 0 -1 -5 -12 -10 -19 -8 -19 -9 -1
-6 11 1 18 6 17 11 -2 5 3 13 11 17 9 6 9 9 1 9 -6 0 -15 -4 -18 -10z"/>
<path d="M2265 1179 c-4 -6 -4 -13 -1 -16 3 -4 6 -1 6 6 0 7 5 9 12 5 7 -4 8
-3 4 4 -9 15 -13 15 -21 1z"/>
<path d="M2145 1161 c-3 -5 0 -13 6 -17 8 -4 9 -3 5 4 -11 18 2 14 23 -7 11
-11 16 -22 13 -26 -4 -3 2 -3 12 1 18 7 18 7 0 17 -11 6 -23 16 -27 24 -9 15
-23 17 -32 4z"/>
<path d="M2236 1155 c-9 -26 -7 -32 5 -12 6 10 9 21 6 23 -2 3 -7 -2 -11 -11z"/>
<path d="M2306 1162 c-3 -5 1 -9 9 -9 8 0 12 4 9 9 -3 4 -7 8 -9 8 -2 0 -6 -4
-9 -8z"/>
<path d="M2142 1123 c-10 -4 -10 -8 -1 -19 8 -10 8 -14 0 -14 -6 0 -11 -5 -11
-11 0 -8 4 -8 14 1 8 6 12 19 9 28 -6 15 -5 15 10 3 15 -12 17 -12 11 3 -6 17
-10 18 -32 9z"/>
<path d="M2210 1095 c0 -8 2 -15 4 -15 2 0 6 7 10 15 3 8 1 15 -4 15 -6 0 -10
-7 -10 -15z"/>
<path d="M2266 1098 c3 -5 10 -6 15 -3 13 9 11 12 -6 12 -8 0 -12 -4 -9 -9z"/>
<path d="M2160 1074 c-11 -12 -11 -17 0 -27 10 -10 12 -9 7 5 -7 20 9 35 16
16 4 -9 6 -10 6 -1 2 19 -16 24 -29 7z"/>
<path d="M2230 1078 c0 -4 4 -8 9 -8 6 0 12 4 15 8 3 5 -1 9 -9 9 -8 0 -15 -4
-15 -9z"/>
<path d="M2335 1081 c-3 -5 -2 -12 3 -15 5 -3 9 1 9 9 0 17 -3 19 -12 6z"/>
<path d="M994 1066 c1 -8 5 -18 8 -22 4 -3 5 1 4 10 -1 8 -5 18 -8 22 -4 3 -5
-1 -4 -10z"/>
<path d="M2200 1056 c0 -8 4 -17 9 -20 5 -4 7 3 4 14 -6 23 -13 26 -13 6z"/>
<path d="M886 1038 c3 -5 10 -6 15 -3 13 9 11 12 -6 12 -8 0 -12 -4 -9 -9z"/>
<path d="M2255 1030 c-4 -6 -10 -8 -14 -6 -4 3 -13 1 -20 -4 -9 -5 -3 -7 16
-7 17 1 30 7 30 14 0 16 -4 16 -12 3z"/>
<path d="M895 999 c-3 -4 2 -6 10 -5 21 3 28 13 10 13 -9 0 -18 -4 -20 -8z"/>
<path d="M2177 1003 c-3 -5 0 -17 4 -28 9 -19 9 -19 5 2 -2 12 1 24 8 27 8 3
8 5 -1 5 -6 1 -14 -2 -16 -6z"/>
<path d="M2150 980 c0 -5 5 -10 11 -10 5 0 7 5 4 10 -3 6 -8 10 -11 10 -2 0
-4 -4 -4 -10z"/>
<path d="M2229 963 c-13 -16 -12 -17 4 -4 16 13 21 21 13 21 -2 0 -10 -8 -17
-17z"/>
<path d="M2120 960 c20 -13 33 -13 25 0 -3 6 -14 10 -23 10 -15 0 -15 -2 -2
-10z"/>
<path d="M2076 925 c-17 -13 -34 -21 -39 -18 -6 3 -7 1 -3 -5 3 -6 -3 -16 -15
-22 -11 -7 -18 -14 -15 -17 3 -4 -8 -14 -24 -24 -17 -11 -30 -23 -30 -28 0
-17 21 -24 33 -11 9 10 8 12 -5 7 -18 -6 -25 7 -10 17 13 8 52 -5 46 -15 -3
-5 2 -12 10 -15 9 -3 13 -10 10 -15 -3 -5 0 -9 5 -9 16 0 13 20 -4 26 -8 4
-12 10 -9 15 3 5 -5 13 -17 17 -19 8 -20 9 -5 15 10 4 15 11 12 16 -3 5 0 11
8 14 8 3 18 -5 25 -19 6 -14 16 -22 21 -19 13 8 13 -1 1 -24 -7 -13 -6 -18 4
-18 8 0 11 7 7 16 -5 14 -4 14 14 1 15 -11 16 -11 7 0 -16 18 -17 34 -1 24 6
-4 8 -3 4 4 -3 6 -16 9 -27 7 -15 -3 -19 0 -15 11 3 8 2 13 -3 10 -5 -3 -11 1
-14 8 -7 17 15 38 34 34 7 -2 13 3 14 11 0 8 6 16 14 19 9 3 11 0 6 -8 -5 -9
-4 -11 4 -6 11 7 6 26 -7 26 -4 -1 -20 -12 -36 -25z"/>
<path d="M2189 923 c-13 -16 -12 -17 4 -4 16 13 21 21 13 21 -2 0 -10 -8 -17
-17z"/>
<path d="M2150 920 c0 -5 5 -10 11 -10 5 0 7 5 4 10 -3 6 -8 10 -11 10 -2 0
-4 -4 -4 -10z"/>
<path d="M2110 895 c0 -8 4 -15 10 -15 5 0 7 7 4 15 -4 8 -8 15 -10 15 -2 0
-4 -7 -4 -15z"/>
<path d="M2275 901 c-3 -5 -2 -12 3 -15 5 -3 9 1 9 9 0 17 -3 19 -12 6z"/>
<path d="M2155 871 c-3 -5 -2 -12 3 -15 5 -3 9 1 9 9 0 17 -3 19 -12 6z"/>
<path d="M2110 856 c7 -7 13 -7 20 0 6 6 3 10 -10 10 -13 0 -16 -4 -10 -10z"/>
<path d="M899 848 c-5 -18 -6 -38 -1 -34 7 8 12 36 6 36 -2 0 -4 -1 -5 -2z"/>
<path d="M2030 843 c0 -6 8 -17 18 -24 16 -13 16 -13 2 6 -8 11 -16 22 -17 24
-2 2 -3 0 -3 -6z"/>
<path d="M2149 837 c6 -8 7 -18 3 -22 -4 -5 -1 -5 6 -1 10 6 10 11 1 22 -6 8
-14 14 -16 14 -3 0 0 -6 6 -13z"/>
<path d="M1035 790 c-4 -6 -11 -7 -17 -4 -7 4 -8 2 -4 -5 6 -9 11 -9 22 0 14
11 18 19 10 19 -3 0 -8 -5 -11 -10z"/>
<path d="M1894 778 c-4 -7 -3 -8 4 -4 7 4 12 2 12 -4 0 -6 5 -8 10 -5 6 3 10
1 10 -4 0 -6 5 -11 11 -11 14 0 2 18 -21 30 -13 7 -21 7 -26 -2z"/>
<path d="M1980 780 c-8 -5 -10 -10 -5 -10 6 0 17 5 25 10 8 5 11 10 5 10 -5 0
-17 -5 -25 -10z"/>
<path d="M1067 755 c3 -8 9 -12 14 -9 12 7 11 11 -5 17 -10 4 -13 1 -9 -8z"/>
<path d="M2000 760 c-8 -5 -10 -10 -5 -10 6 0 3 -5 -5 -10 -12 -7 -10 -9 7 -8
14 2 19 7 15 17 -4 10 -1 12 8 6 9 -5 11 -4 6 3 -9 14 -7 14 -26 2z"/>
<path d="M2069 757 c6 -8 7 -18 3 -22 -4 -5 -1 -5 6 -1 10 6 10 11 1 22 -6 8
-14 14 -16 14 -3 0 0 -6 6 -13z"/>
<path d="M970 741 c0 -6 4 -13 10 -16 6 -3 7 1 4 9 -7 18 -14 21 -14 7z"/>
<path d="M1049 737 c6 -8 7 -18 3 -22 -4 -5 -1 -5 6 -1 10 6 10 11 1 22 -6 8
-14 14 -16 14 -3 0 0 -6 6 -13z"/>
<path d="M1109 738 c-10 -6 -7 -7 10 -3 16 5 21 4 17 -4 -4 -6 0 -14 8 -17 9
-3 16 -10 16 -16 0 -5 -5 -6 -12 -2 -7 4 -8 3 -4 -5 11 -18 23 -5 24 27 0 24
-3 30 -23 30 -12 0 -29 -5 -36 -10z m51 -8 c0 -5 -5 -10 -11 -10 -5 0 -7 5 -4
10 3 6 8 10 11 10 2 0 4 -4 4 -10z"/>
<path d="M1831 724 c-6 -15 -10 -29 -7 -31 6 -6 46 20 46 31 0 4 -7 2 -16 -5
-15 -12 -16 -11 -10 9 10 30 2 28 -13 -4z"/>
<path d="M1797 722 c-10 -10 -17 -24 -17 -31 0 -7 -5 -9 -12 -5 -7 4 -8 3 -4
-5 9 -14 26 -5 26 15 0 8 4 14 9 14 5 0 11 7 15 15 7 20 3 19 -17 -3z"/>
<path d="M1928 733 c6 -2 9 -10 6 -15 -4 -7 -2 -8 5 -4 13 9 5 26 -12 25 -9 0
-8 -2 1 -6z"/>
<path d="M1067 705 c-16 -23 -16 -24 -1 -18 13 5 15 3 9 -8 -4 -8 -4 -11 0 -7
7 7 18 59 12 58 -1 0 -10 -12 -20 -25z"/>
<path d="M1755 710 c-3 -5 -1 -10 4 -10 6 0 11 5 11 10 0 6 -2 10 -4 10 -3 0
-8 -4 -11 -10z"/>
<path d="M1877 707 c-3 -8 -2 -20 3 -26 5 -9 8 -4 8 13 0 29 -3 32 -11 13z"/>
<path d="M1910 711 c0 -6 4 -13 10 -16 6 -3 7 1 4 9 -7 18 -14 21 -14 7z"/>
<path d="M2056 707 c3 -10 9 -15 12 -12 3 3 0 11 -7 18 -10 9 -11 8 -5 -6z"/>
<path d="M906 702 c-3 -5 1 -9 9 -9 8 0 12 4 9 9 -3 4 -7 8 -9 8 -2 0 -6 -4
-9 -8z"/>
<path d="M1100 706 c0 -2 7 -6 15 -10 8 -3 15 -1 15 4 0 6 -7 10 -15 10 -8 0
-15 -2 -15 -4z"/>
<path d="M1950 698 c0 -6 3 -8 7 -5 3 4 13 1 22 -6 14 -11 14 -10 2 6 -15 20
-31 22 -31 5z"/>
<path d="M2030 701 c0 -6 4 -13 10 -16 6 -3 7 1 4 9 -7 18 -14 21 -14 7z"/>
<path d="M1730 690 c0 -5 5 -10 11 -10 5 0 7 5 4 10 -3 6 -8 10 -11 10 -2 0
-4 -4 -4 -10z"/>
<path d="M1315 673 c-19 -15 -19 -15 4 -8 13 4 21 3 18 -2 -3 -5 3 -15 15 -22
11 -7 17 -8 13 -2 -3 6 -1 11 4 11 6 0 11 5 11 12 0 9 -3 9 -12 0 -10 -10 -14
-8 -23 7 -9 18 -12 18 -30 4z"/>
<path d="M1796 674 c-8 -21 -8 -34 2 -34 4 0 8 11 8 25 2 29 -1 32 -10 9z"/>
<path d="M1835 674 c-10 -8 -14 -14 -8 -14 7 0 15 5 19 11 4 8 9 7 15 -2 6
-10 9 -10 9 -2 0 19 -14 22 -35 7z"/>
<path d="M2090 683 c0 -6 8 -17 18 -24 16 -13 16 -13 2 6 -8 11 -16 22 -17 24
-2 2 -3 0 -3 -6z"/>
<path d="M1485 670 c-4 -6 -12 -7 -18 -4 -7 4 -9 3 -4 -1 4 -5 0 -16 -9 -26
-11 -12 -12 -19 -4 -24 6 -4 14 -4 17 -1 4 3 0 6 -8 6 -8 0 -10 3 -4 8 16 11
49 52 42 52 -3 0 -9 -5 -12 -10z"/>
<path d="M1606 667 c3 -10 9 -15 12 -12 3 3 0 11 -7 18 -10 9 -11 8 -5 -6z"/>
<path d="M1948 673 c6 -2 10 -8 7 -13 -7 -11 22 -7 32 5 4 4 3 5 -4 1 -6 -3
-14 -2 -18 4 -3 5 -12 10 -18 9 -9 0 -8 -2 1 -6z"/>
<path d="M976 661 c8 -8 43 -8 38 0 -2 4 -13 7 -24 6 -10 -1 -17 -3 -14 -6z"/>
<path d="M1090 662 c0 -4 10 -9 22 -9 18 -2 20 0 8 7 -18 12 -30 13 -30 2z"/>
<path d="M1145 659 c-4 -6 -5 -12 -2 -15 2 -3 7 2 10 11 7 17 1 20 -8 4z"/>
<path d="M1230 660 c0 -6 7 -10 15 -10 8 0 15 2 15 4 0 2 -7 6 -15 10 -8 3
-15 1 -15 -4z"/>
<path d="M1270 662 c0 -4 9 -13 20 -20 23 -14 26 -7 6 14 -16 15 -26 18 -26 6z"/>
<path d="M1498 648 c-20 -25 -23 -38 -7 -38 5 0 8 4 5 9 -3 4 3 16 14 26 22
20 28 7 8 -14 -11 -11 -9 -11 9 0 16 10 19 16 11 26 -14 18 -20 16 -40 -9z"/>
<path d="M1700 654 c-10 -11 -9 -15 4 -20 21 -8 49 3 41 16 -3 5 -2 10 4 10 5
0 12 -5 14 -10 3 -6 4 -5 3 2 -4 18 -52 20 -66 2z m35 -4 c3 -5 -3 -10 -15
-10 -12 0 -18 5 -15 10 3 6 10 10 15 10 5 0 12 -4 15 -10z"/>
<path d="M1904 650 c0 -13 4 -16 10 -10 7 7 7 13 0 20 -6 6 -10 3 -10 -10z"/>
<path d="M1175 651 c-3 -5 0 -13 6 -17 8 -5 9 -3 4 6 -6 10 -4 12 9 7 10 -4
20 -7 23 -7 3 0 -1 -8 -8 -17 -13 -17 -12 -17 4 -4 18 14 18 16 1 28 -21 15
-31 16 -39 4z"/>
<path d="M2015 640 c3 -5 8 -10 11 -10 2 0 4 5 4 10 0 6 -5 10 -11 10 -5 0 -7
-4 -4 -10z"/>
<path d="M1009 623 c-13 -16 -12 -17 4 -4 9 7 17 15 17 17 0 8 -8 3 -21 -13z"/>
<path d="M1244 624 c-18 -14 -18 -15 4 -4 12 6 22 13 22 15 0 8 -5 6 -26 -11z"/>
<path d="M1321 623 c-1 -25 14 -39 25 -22 4 7 3 9 -4 5 -6 -3 -12 3 -15 16 -4
23 -4 23 -6 1z"/>
<path d="M1590 628 c0 -6 3 -8 6 -5 11 11 63 -25 57 -40 -3 -7 -3 -13 0 -13 3
0 7 7 10 14 4 10 -6 23 -27 35 -38 24 -46 26 -46 9z"/>
<path d="M1035 621 c-3 -5 -2 -12 3 -15 5 -3 9 1 9 9 0 17 -3 19 -12 6z"/>
<path d="M1275 620 c-3 -5 -1 -10 4 -10 6 0 11 5 11 10 0 6 -2 10 -4 10 -3 0
-8 -4 -11 -10z"/>
<path d="M1535 620 c-14 -23 33 -37 52 -15 5 4 3 5 -3 2 -7 -4 -14 0 -18 8 -6
17 -22 20 -31 5z m25 -4 c0 -3 -4 -8 -10 -11 -5 -3 -10 -1 -10 4 0 6 5 11 10
11 6 0 10 -2 10 -4z"/>
<path d="M1670 622 c0 -4 10 -9 22 -9 18 -2 20 0 8 7 -18 12 -30 13 -30 2z"/>
<path d="M1740 620 c-9 -6 -10 -10 -3 -10 6 0 15 5 18 10 8 12 4 12 -15 0z"/>
<path d="M1810 620 c0 -4 7 -7 15 -6 23 3 26 12 5 13 -11 1 -20 -2 -20 -7z"/>
<path d="M1423 607 c0 -8 6 -14 14 -14 9 0 10 4 2 14 -6 7 -12 13 -14 13 -1 0
-2 -6 -2 -13z"/>
<path d="M1187 599 c7 -7 15 -10 18 -7 3 3 -2 9 -12 12 -14 6 -15 5 -6 -5z"/>
<path d="M1390 600 c0 -5 5 -10 10 -10 6 0 10 5 10 10 0 6 -4 10 -10 10 -5 0
-10 -4 -10 -10z"/>
<path d="M1706 584 c-5 -14 -4 -15 9 -4 17 14 19 20 6 20 -5 0 -12 -7 -15 -16z"/>
<path d="M1146 578 c3 -5 10 -6 15 -3 13 9 11 12 -6 12 -8 0 -12 -4 -9 -9z"/>
<path d="M1240 580 c-12 -7 -10 -9 7 -7 12 0 19 5 17 9 -6 10 -6 10 -24 -2z"/>
<path d="M1300 579 c0 -5 5 -7 10 -4 6 3 10 8 10 11 0 2 -4 4 -10 4 -5 0 -10
-5 -10 -11z"/>
<path d="M1350 580 c0 -4 7 -13 15 -20 13 -11 14 -10 9 5 -6 14 -4 16 7 10 8
-5 11 -4 6 0 -10 12 -37 15 -37 5z"/>
<path d="M1522 576 c7 -8 15 -12 17 -11 5 6 -10 25 -20 25 -5 0 -4 -6 3 -14z"/>
<path d="M1610 586 c0 -2 7 -7 16 -10 8 -3 12 -2 9 4 -6 10 -25 14 -25 6z"/>
<path d="M1753 576 c-3 -6 -3 -8 2 -4 4 4 13 3 20 -2 8 -7 12 -5 12 3 0 16
-25 18 -34 3z"/>
<path d="M1427 566 c-4 -10 1 -12 14 -9 23 6 24 9 5 16 -8 3 -17 0 -19 -7z"/>
<path d="M1478 573 c7 -3 16 -2 19 1 4 3 -2 6 -13 5 -11 0 -14 -3 -6 -6z"/>
<path d="M1555 569 c-4 -6 -5 -12 -2 -15 2 -3 7 2 10 11 7 17 1 20 -8 4z"/>
<path d="M1070 559 c0 -5 5 -7 10 -4 6 3 10 8 10 11 0 2 -4 4 -10 4 -5 0 -10
-5 -10 -11z"/>
<path d="M1895 560 c-3 -5 -1 -10 4 -10 6 0 11 5 11 10 0 6 -2 10 -4 10 -3 0
-8 -4 -11 -10z"/>
<path d="M1155 551 c-3 -5 -2 -12 3 -15 5 -3 9 1 9 9 0 17 -3 19 -12 6z"/>
<path d="M1215 540 c2 -27 10 -33 12 -10 1 11 -2 22 -6 24 -4 3 -7 -4 -6 -14z"/>
<path d="M1396 547 c3 -10 9 -15 12 -12 3 3 0 11 -7 18 -10 9 -11 8 -5 -6z"/>
<path d="M1606 545 c-11 -8 -15 -15 -9 -15 6 0 16 7 23 15 16 19 11 19 -14 0z"/>
<path d="M1695 549 c-4 -6 -5 -12 -2 -15 2 -3 7 2 10 11 7 17 1 20 -8 4z"/>
<path d="M1736 547 c3 -10 9 -15 12 -12 3 3 0 11 -7 18 -10 9 -11 8 -5 -6z"/>
<path d="M1440 545 c0 -2 6 -8 13 -14 10 -8 14 -7 14 2 0 8 -6 14 -14 14 -7 0
-13 -1 -13 -2z"/>
<path d="M1530 541 c0 -6 4 -13 10 -16 6 -3 7 1 4 9 -7 18 -14 21 -14 7z"/>
<path d="M1790 526 c0 -2 7 -7 16 -10 8 -3 12 -2 9 4 -6 10 -25 14 -25 6z"/>
<path d="M1582 504 c10 -10 20 -16 22 -13 3 3 -5 11 -17 18 -21 13 -21 12 -5
-5z"/>
<path d="M1669 503 c-13 -16 -12 -17 4 -4 16 13 21 21 13 21 -2 0 -10 -8 -17
-17z"/>
<path d="M1345 500 c-3 -6 1 -7 9 -4 18 7 21 14 7 14 -6 0 -13 -4 -16 -10z"/>
<path d="M1506 498 c3 -5 10 -6 15 -3 13 9 11 12 -6 12 -8 0 -12 -4 -9 -9z"/>
<path d="M1296 478 c3 -4 11 -5 19 -1 21 7 19 12 -4 10 -11 0 -18 -5 -15 -9z"/>
<path d="M1415 480 c3 -5 8 -10 11 -10 2 0 4 5 4 10 0 6 -5 10 -11 10 -5 0 -7
-4 -4 -10z"/>
<path d="M1509 463 c-13 -16 -12 -17 4 -4 16 13 21 21 13 21 -2 0 -10 -8 -17
-17z"/>
<path d="M1593 455 c0 -8 4 -12 9 -9 5 3 6 10 3 15 -9 13 -12 11 -12 -6z"/>
</g>
</svg>
